<svg width="103" height="284" viewBox="0 0 103 284" fill="none" xmlns="http://www.w3.org/2000/svg">
<path d="M54.8207 58.1868L46.0607 54.6545C46.0607 54.6545 34.5014 75.7333 31.1899 76.8018C26.6862 78.2501 17.3611 82.2768 11.8331 82.9833C11.0825 83.8664 9.85499 86.6127 9.96979 87.6106C17.3964 90.092 33.7154 86.7981 37.2124 84.2019C45.1688 78.3119 54.8207 58.1868 54.8207 58.1868Z" fill="#E58A7B"/>
<path d="M57.5141 53.3918C59.1477 59.4231 50.2994 71.5565 50.2994 71.5565L38.7048 65.0571C38.7048 65.0571 40.8771 60.0678 43.5263 54.9901C47.7739 46.7865 55.6508 46.5127 57.5141 53.3918Z" fill="#4CAF4F"/>
<path opacity="0.2" d="M57.5141 53.3918C59.1477 59.4231 50.2994 71.5565 50.2994 71.5565L38.7048 65.0571C38.7048 65.0571 40.8771 60.0678 43.5263 54.9901C47.7739 46.7865 55.6508 46.5127 57.5141 53.3918Z" fill="black"/>
<path opacity="0.2" d="M43.3055 67.6533L47.871 70.2142L48.6746 56.2C46.0166 58.2398 44.1445 64.386 43.3055 67.6533Z" fill="black"/>
<path d="M49.8844 48.8528C49.8844 48.8528 40.8594 68.9337 46.1225 106.323H81.6836C82.2487 100.865 80.3766 74.2321 87.1497 48.5173C83.2487 47.7549 79.3017 47.2504 75.3343 47.0072C70.3021 46.7156 65.2573 46.7156 60.2251 47.0072C56.7367 47.3614 53.28 47.9784 49.8844 48.8528Z" fill="#4CAF4F"/>
<path opacity="0.2" d="M49.8844 48.8528C49.8844 48.8528 40.8594 68.9337 46.1225 106.323H81.6836C82.2487 100.865 80.3766 74.2321 87.1497 48.5173C83.2487 47.7549 79.3017 47.2504 75.3343 47.0072C70.3021 46.7156 65.2573 46.7156 60.2251 47.0072C56.7367 47.3614 53.28 47.9784 49.8844 48.8528Z" fill="black"/>
<path d="M41.6365 282.229C41.5835 283.183 55.0679 283.951 71.7491 283.951C88.4302 283.951 102.012 283.183 102.065 282.229C102.118 281.276 88.6421 280.516 71.9521 280.516C55.2622 280.516 41.6983 281.285 41.6365 282.229Z" fill="#E8ECF1"/>
<path d="M65.3739 257.171L59.0667 259.612L64.4996 273.647L70.8068 271.206L65.3739 257.171Z" fill="#E58A7B"/>
<path d="M93.499 275.439H86.8495L84.4122 260.047H91.0617L93.499 275.439Z" fill="#E58A7B"/>
<path d="M86.3903 274.67H93.861C93.9906 274.671 94.1159 274.717 94.2145 274.801C94.3132 274.885 94.3788 275.002 94.3997 275.13L95.3622 281.037C95.3825 281.186 95.3707 281.336 95.3275 281.48C95.2843 281.623 95.2107 281.755 95.1119 281.867C95.013 281.98 94.8911 282.069 94.7545 282.13C94.6179 282.191 94.4698 282.222 94.3202 282.221C91.7152 282.176 90.4612 282.018 87.1762 282.018C85.154 282.018 80.9947 282.229 78.1866 282.229C75.3784 282.229 75.193 279.474 76.3498 279.218C81.5423 278.097 83.5556 276.569 85.2864 275.085C85.5916 274.817 85.9841 274.67 86.3903 274.67Z" fill="#263238"/>
<path d="M64.3136 272.392L71.3782 270.326C71.5042 270.29 71.6387 270.299 71.7592 270.35C71.8796 270.402 71.9789 270.493 72.0405 270.608L74.6897 275.907C74.7512 276.041 74.7827 276.187 74.7818 276.335C74.781 276.483 74.7478 276.629 74.6848 276.763C74.6217 276.896 74.5302 277.015 74.4167 277.109C74.3031 277.204 74.1702 277.273 74.0274 277.311C71.4577 278.017 69.7357 278.45 66.5213 279.386C64.3048 280.031 62.0442 281.081 59.8542 281.779C58.3353 282.265 54.7677 282.282 52.9221 282.282C50.1934 282.282 49.5841 279.404 50.7586 279.271C53.7169 278.944 54.1142 279.095 55.7479 278.273C58.421 277.105 60.8436 275.432 62.8831 273.346C63.2677 272.907 63.7611 272.579 64.3136 272.392Z" fill="#263238"/>
<path d="M12.9457 82.948L5.63391 79.8837L2.62268 87.9903C5.61959 88.4468 8.66835 88.4468 11.6653 87.9903L12.9457 82.948Z" fill="#E58A7B"/>
<path d="M0.194276 79.6718L0 85.0585L2.62271 87.9726L5.63394 79.8661L0.194276 79.6718Z" fill="#E58A7B"/>
<path d="M66.2391 258.362L59.9123 260.805L62.7143 268.063L69.0411 265.62L66.2391 258.362Z" fill="#CF6F64"/>
<path d="M91.0617 260.047H84.4122L85.675 267.986H92.3245L91.0617 260.047Z" fill="#CF6F64"/>
<path opacity="0.2" d="M44.9922 96.2117C45.1246 97.81 45.2748 99.4437 45.4691 101.122L71.908 92.5381C76.0369 91.3144 79.6252 88.7197 82.0809 85.1822C82.1869 82.8244 82.3194 80.343 82.5225 77.7556C82.6108 76.5016 82.7168 75.2123 82.8316 73.9054C82.9464 72.5985 83.1053 71.1502 83.2731 69.755L44.9922 96.2117Z" fill="black"/>
<path d="M53.6285 67.2471L52.7455 67.1411C53.2665 62.7258 56.5603 59.2465 60.0308 59.3348V60.2179C56.993 60.1561 54.0966 63.291 53.6285 67.2471Z" fill="white"/>
<path d="M58.3353 75.3978H58.1852V74.5147C61.2229 74.6295 64.0752 71.4593 64.5433 67.512L65.4263 67.618C64.9583 71.9362 61.7704 75.3978 58.3353 75.3978Z" fill="white"/>
<path d="M74.8398 29.9905C73.5947 34.8562 72.1288 43.7664 75.3343 47.0072C75.3343 47.0072 73.0913 51.9436 64.0576 51.9436C55.8009 51.9436 60.2251 47.0072 60.2251 47.0072C65.7177 45.7179 65.8149 41.7088 65.0908 37.9116L74.8398 29.9905Z" fill="#E58A7B"/>
<path d="M70.866 33.2225L65.0996 37.9116C65.2784 38.7842 65.3817 39.6705 65.4087 40.5608C67.0953 42.2386 70.4775 37.9911 70.8219 35.8187C70.9969 34.9635 71.0118 34.0832 70.866 33.2225Z" fill="#CF6F64"/>
<path d="M55.1828 29.9287C55.584 30.6242 56.1244 31.2294 56.7702 31.7065C57.4159 32.1836 58.1532 32.5223 58.9358 32.7016C61.0552 33.1696 62.1149 31.218 61.532 29.2576C61.011 27.4915 59.2714 25.116 57.1167 25.5222C56.6552 25.6173 56.2231 25.8216 55.8567 26.118C55.4904 26.4143 55.2004 26.7942 55.011 27.2257C54.8216 27.6572 54.7384 28.1278 54.7683 28.5981C54.7982 29.0684 54.9403 29.5247 55.1828 29.9287Z" fill="#CF6F64"/>
<path d="M58.6886 14.3603C55.3859 15.8703 54.2202 28.9927 58.3706 30.9354C62.5211 32.8782 64.9407 11.4903 58.6886 14.3603Z" fill="#263238"/>
<path d="M75.8465 22.6699C75.0517 29.2576 74.9634 33.1343 71.4312 36.5076C70.3366 37.627 68.954 38.4222 67.436 38.8053C65.918 39.1884 64.3236 39.1446 62.8289 38.6786C61.3343 38.2127 59.9974 37.3428 58.966 36.1649C57.9346 34.987 57.2488 33.547 56.9842 32.0039C55.9157 26.0874 57.3904 16.3119 63.9958 13.6892C65.3836 13.077 66.9099 12.8472 68.4165 13.0236C69.923 13.1999 71.355 13.7761 72.5639 14.6922C73.7728 15.6084 74.7147 16.8312 75.2919 18.2339C75.8691 19.6367 76.0606 21.1683 75.8465 22.6699Z" fill="#E58A7B"/>
<path d="M64.9936 17.7689C69.8858 16.5238 73.4799 15.6761 72.1906 19.747C70.4863 25.1867 68.4376 30.4497 71.1839 30.6882C72.8617 30.8383 80.2795 27.6946 79.3346 24.5067C78.5134 21.7339 81.9838 20.9744 82.6019 19.5704C84.8891 14.4839 78.3456 15.155 79.5112 12.0643C80.6769 8.97358 74.2128 3.99309 70.6806 6.47451C64.9318 10.4836 55.068 10.4218 60.2516 3.82531C63.9693 -0.881432 57.3375 0.0811049 57.3375 0.0811049C57.3375 0.0811049 61.3466 2.45656 54.5999 6.13011C47.4648 10.0509 54.0083 20.5859 64.9936 17.7689Z" fill="#263238"/>
<path d="M78.4427 29.9287C77.4769 31.3262 76.0259 32.3146 74.3718 32.7016C72.1906 33.1696 71.3517 31.218 72.173 29.2576C72.9059 27.4915 74.9193 25.116 77.0033 25.5222C79.0874 25.9284 79.5642 28.1979 78.4427 29.9287Z" fill="#E58A7B"/>
<path d="M46.1225 106.323C46.1225 106.323 40.153 159.748 39.6849 180.023C39.2081 201.111 59.916 266.908 59.916 266.908L70.5128 262.493C70.5128 262.493 58.1498 202.374 59.916 181.666C61.7881 159.086 69.5237 106.358 69.5237 106.358L46.1225 106.323Z" fill="#4CAF4F"/>
<path opacity="0.2" d="M60.958 120.99C56.1983 130.863 59.4038 150.388 61.9824 161.956C62.9626 153.787 64.1282 144.922 65.2321 136.718C65.1261 124.108 64.1459 114.367 60.958 120.99Z" fill="black"/>
<path d="M70.0448 258.996C70.0978 258.996 71.2987 262.369 71.2987 262.369L59.0771 267.509L57.152 263.923L70.0448 258.996Z" fill="#4CAF4F"/>
<path d="M58.7415 106.323C58.7415 106.323 63.307 157.134 66.327 176.164C69.6474 197.014 82.6638 266.449 82.6638 266.449H94.8412C94.8412 266.449 87.5471 198.7 86.1695 178.054C84.6683 155.66 81.6836 106.323 81.6836 106.323H58.7415Z" fill="#4CAF4F"/>
<path d="M95.0267 263.279C95.0797 263.279 95.4329 266.679 95.4329 266.679H82.0456L81.0919 262.776L95.0267 263.279Z" fill="#4CAF4F"/>
<path opacity="0.2" d="M90.3641 259.252C90.3365 259.252 90.3097 259.243 90.2886 259.225C90.2675 259.207 90.2536 259.182 90.2493 259.155C90.1787 258.537 83.5998 197.34 82.3636 178.796C81.0213 158.68 78.3191 114.058 78.2926 113.608C78.2914 113.593 78.2932 113.579 78.298 113.565C78.3028 113.551 78.3104 113.538 78.3204 113.527C78.3303 113.517 78.3424 113.508 78.3559 113.502C78.3693 113.496 78.3839 113.493 78.3986 113.493C78.4276 113.493 78.4555 113.504 78.4768 113.524C78.4981 113.543 78.5111 113.57 78.5134 113.599C78.5134 114.05 81.2421 158.636 82.5843 178.787C83.8206 197.331 90.3994 258.484 90.4612 259.146C90.4638 259.161 90.4632 259.176 90.4596 259.19C90.4559 259.204 90.4493 259.218 90.4401 259.229C90.431 259.241 90.4195 259.251 90.4064 259.258C90.3933 259.265 90.3789 259.269 90.3641 259.27V259.252Z" fill="black"/>
<path d="M65.7442 24.5067C65.7442 25.0454 65.4087 25.4781 65.0555 25.4781C64.7022 25.4781 64.4461 25.0454 64.4815 24.5067C64.5168 23.968 64.817 23.5353 65.1703 23.5353C65.5235 23.5353 65.7796 23.9769 65.7442 24.5067Z" fill="#263238"/>
<path d="M59.6864 24.5067C59.6864 25.0454 59.342 25.4781 58.9976 25.4781C58.6532 25.4781 58.3883 25.0454 58.4148 24.5067C58.4413 23.968 58.7592 23.5353 59.1124 23.5353C59.4656 23.5353 59.7217 23.9769 59.6864 24.5067Z" fill="#263238"/>
<path d="M61.5938 24.7805C60.8567 26.4253 59.9066 27.9662 58.768 29.3636C59.6511 30.2466 61.3024 29.8404 61.3024 29.8404L61.5938 24.7805Z" fill="#DF5753"/>
<path d="M61.7527 32.0922C61.7323 32.0923 61.712 32.0881 61.6932 32.08C61.6744 32.0719 61.6574 32.0601 61.6433 32.0452C61.6293 32.0303 61.6184 32.0127 61.6114 31.9935C61.6044 31.9742 61.6014 31.9537 61.6026 31.9333C61.6049 31.8903 61.6236 31.8499 61.6548 31.8203C61.686 31.7907 61.7274 31.7743 61.7704 31.7743C62.4458 31.779 63.1137 31.6323 63.7249 31.345C64.3362 31.0577 64.8753 30.6372 65.3027 30.1142C65.3332 30.0875 65.3725 30.0728 65.413 30.0728C65.4536 30.0728 65.4929 30.0875 65.5234 30.1142C65.552 30.1438 65.568 30.1834 65.568 30.2246C65.568 30.2657 65.552 30.3053 65.5234 30.3349C65.066 30.8908 64.4899 31.3371 63.8374 31.6412C63.1849 31.9453 62.4726 32.0994 61.7527 32.0922Z" fill="#263238"/>
<path d="M66.8216 22.8818C66.7792 22.9035 66.7323 22.9148 66.6847 22.9148C66.6371 22.9148 66.5902 22.9035 66.5478 22.8818C66.2175 22.6683 65.8415 22.5354 65.4504 22.494C65.0592 22.4526 64.6638 22.5038 64.296 22.6434C64.2602 22.6613 64.2211 22.6719 64.1811 22.6745C64.1411 22.6771 64.101 22.6716 64.0631 22.6584C64.0252 22.6453 63.9904 22.6247 63.9606 22.5978C63.9309 22.571 63.9068 22.5384 63.8898 22.5021C63.857 22.4235 63.8562 22.3352 63.8876 22.2561C63.9189 22.1769 63.9799 22.1131 64.0576 22.0782C64.5193 21.8897 65.0196 21.8153 65.5162 21.8614C66.0127 21.9075 66.4908 22.0728 66.9099 22.3432C66.9437 22.3662 66.9727 22.3957 66.995 22.43C67.0174 22.4643 67.0327 22.5026 67.0401 22.5429C67.0475 22.5831 67.0468 22.6245 67.0381 22.6645C67.0294 22.7045 67.0128 22.7423 66.9894 22.7759C66.9447 22.8265 66.8865 22.8633 66.8216 22.8818Z" fill="#263238"/>
<path d="M57.3463 21.1157C57.2992 21.1043 57.2563 21.0799 57.2226 21.0451C57.1933 21.0163 57.1699 20.982 57.154 20.9441C57.1381 20.9061 57.1299 20.8654 57.1299 20.8243C57.1299 20.7832 57.1381 20.7425 57.154 20.7046C57.1699 20.6667 57.1933 20.6323 57.2226 20.6036C57.5611 20.2239 57.9826 19.9276 58.4544 19.7377C58.9262 19.5478 59.4354 19.4693 59.9425 19.5086C59.9831 19.5148 60.022 19.5294 60.0568 19.5513C60.0916 19.5732 60.1215 19.602 60.1446 19.636C60.1678 19.6699 60.1838 19.7082 60.1915 19.7486C60.1993 19.789 60.1987 19.8305 60.1897 19.8706C60.1708 19.9524 60.1227 20.0244 60.0544 20.0732C59.9861 20.122 59.9023 20.1441 59.8189 20.1355C59.4176 20.1102 59.0159 20.1766 58.6441 20.3296C58.2723 20.4826 57.9402 20.7182 57.673 21.0186C57.6328 21.0633 57.581 21.096 57.5233 21.1131C57.4657 21.1303 57.4044 21.1312 57.3463 21.1157Z" fill="#263238"/>
<path d="M90.5673 57.2067L81.3834 54.7606C81.3834 54.7606 72.3761 76.9343 69.1882 78.3737C64.8612 80.3518 53.9023 87.2044 49.2398 90.4452C48.9837 91.5491 49.1868 94.472 49.7696 95.2756C57.7172 93.8274 72.9324 87.9727 76.1114 84.9967C83.3614 78.2059 90.5673 57.2067 90.5673 57.2067Z" fill="#E58A7B"/>
<path d="M84.1562 275.836C83.708 275.871 83.2615 275.75 82.8934 275.492C82.7797 275.389 82.6946 275.258 82.6466 275.113C82.5986 274.967 82.5893 274.812 82.6196 274.662C82.6252 274.568 82.656 274.477 82.7089 274.399C82.7617 274.322 82.8347 274.26 82.9199 274.22C83.6617 273.84 85.7368 275.156 85.9753 275.306C86.0015 275.322 86.0217 275.347 86.0329 275.375C86.044 275.404 86.0455 275.436 86.0371 275.465C86.0295 275.496 86.0142 275.524 85.9925 275.547C85.9709 275.571 85.9437 275.588 85.9135 275.598C85.3378 275.739 84.7487 275.819 84.1562 275.836ZM83.2731 274.458C83.2062 274.444 83.1369 274.444 83.07 274.458C83.0361 274.476 83.0081 274.502 82.9892 274.535C82.9704 274.568 82.9616 274.606 82.964 274.644C82.9405 274.747 82.9444 274.854 82.9754 274.955C83.0064 275.055 83.0634 275.146 83.1406 275.218C83.485 275.527 84.3504 275.562 85.4896 275.341C84.8113 274.895 84.0474 274.594 83.2466 274.458H83.2731Z" fill="#4CAF4F"/>
<path d="M85.8693 275.598C85.8463 275.605 85.8216 275.605 85.7986 275.598C85.1363 275.227 83.8912 273.77 84.0767 273.028C84.1044 272.91 84.1708 272.805 84.2653 272.73C84.3598 272.655 84.4769 272.614 84.5977 272.613C84.7162 272.597 84.8367 272.607 84.951 272.642C85.0653 272.677 85.1707 272.736 85.26 272.816C85.9929 273.443 86.0371 275.368 86.0371 275.465C86.0413 275.494 86.0359 275.524 86.0215 275.549C86.0071 275.575 85.9846 275.595 85.9576 275.606C85.9279 275.612 85.8972 275.609 85.8693 275.598ZM84.686 272.904H84.6242C84.4211 272.904 84.3946 273.019 84.3857 273.063C84.2798 273.496 85.0657 274.6 85.7192 275.121C85.7162 274.375 85.4851 273.648 85.0569 273.037C84.9544 272.947 84.8219 272.9 84.686 272.904Z" fill="#4CAF4F"/>
<path d="M60.7108 274.732C60.1704 274.921 59.5821 274.921 59.0417 274.732C58.919 274.666 58.815 274.569 58.7394 274.452C58.6638 274.335 58.6189 274.2 58.6091 274.061C58.5979 273.974 58.6091 273.885 58.6415 273.803C58.6739 273.721 58.7266 273.649 58.7945 273.593C59.5009 272.957 62.3886 273.593 62.7153 273.717C62.7464 273.725 62.7738 273.743 62.7931 273.769C62.8123 273.794 62.8223 273.826 62.8213 273.858C62.8226 273.891 62.8141 273.924 62.7968 273.952C62.7795 273.98 62.7542 274.003 62.7241 274.017C62.0739 274.31 61.4005 274.55 60.7108 274.732ZM59.2714 273.681C59.1704 273.702 59.0762 273.747 58.9976 273.814C58.9695 273.835 58.9479 273.863 58.9354 273.896C58.9229 273.929 58.9199 273.965 58.9269 273.999C58.9327 274.092 58.9616 274.182 59.011 274.26C59.0603 274.339 59.1286 274.404 59.2095 274.45C59.6776 274.697 60.7637 274.503 62.1678 273.911C61.222 273.672 60.2429 273.595 59.2714 273.681Z" fill="#4CAF4F"/>
<path d="M62.6976 274.017H62.627C61.7439 273.858 59.9778 272.842 59.9248 272.083C59.9248 271.906 60.0043 271.659 60.4282 271.518C60.5714 271.467 60.7234 271.445 60.8751 271.454C61.0268 271.463 61.1752 271.503 61.3112 271.571C62.2649 272.039 62.7683 273.734 62.7948 273.814C62.801 273.841 62.8002 273.868 62.7925 273.895C62.7847 273.921 62.7703 273.945 62.7506 273.964C62.7374 273.986 62.7193 274.004 62.6976 274.017ZM60.6048 271.783H60.5165C60.2427 271.88 60.2427 271.995 60.2427 272.03C60.2427 272.489 61.5232 273.328 62.4151 273.611C62.2096 272.901 61.7749 272.28 61.1788 271.845C61.0015 271.754 60.7972 271.732 60.6048 271.783Z" fill="#4CAF4F"/>
<path d="M49.9904 89.9242L40.78 94.1629L39.7115 96.8121L43.1113 99.0992C43.1113 99.0992 49.4693 98.4105 51.2796 94.3219L49.9904 89.9242Z" fill="#E58A7B"/>
<path d="M50.3789 95.4257C50.1731 93.6561 49.5888 91.9514 48.6658 90.4276L50.1228 89.3326C51.2189 91.0884 51.9181 93.0624 52.1715 95.1167L50.3789 95.4257Z" fill="#263238"/>
<path d="M51.9507 91.1782C52.1454 91.4844 52.2411 91.8432 52.2247 92.2058C52.2083 92.5683 52.0805 92.917 51.8589 93.2044C51.6373 93.4918 51.3325 93.7039 50.9861 93.8119C50.6396 93.9199 50.2683 93.9186 49.9226 93.8081C49.5769 93.6976 49.2737 93.4833 49.0541 93.1943C48.8346 92.9054 48.7093 92.5558 48.6955 92.1931C48.6817 91.8305 48.7799 91.4724 48.9768 91.1675C49.1737 90.8627 49.4598 90.6259 49.796 90.4894C50.1735 90.2971 50.6116 90.2615 51.0151 90.3905C51.4186 90.5195 51.7548 90.8026 51.9507 91.1782Z" fill="#263238"/>
<path d="M34.5543 97.5892L35.7818 98.8255L44.0473 95.2932L40.78 94.1629L34.5543 97.5892Z" fill="#E58A7B"/>
<path opacity="0.2" d="M70.0448 258.996C70.0978 258.996 71.2987 262.369 71.2987 262.369L59.0771 267.509L57.152 263.923L70.0448 258.996Z" fill="black"/>
<path opacity="0.2" d="M95.0267 263.279C95.0797 263.279 95.4329 266.679 95.4329 266.679H82.0456L81.0919 262.776L95.0267 263.279Z" fill="black"/>
<path d="M92.9603 54.6634C95.3888 62.4962 85.8958 73.2078 85.8958 73.2078L72.7823 67.8564C74.3366 63.3291 76.1288 58.887 78.1513 54.5486C82.1781 45.8681 90.5054 46.76 92.9603 54.6634Z" fill="#4CAF4F"/>
<path opacity="0.2" d="M92.9603 54.6634C95.3888 62.4962 85.8958 73.2078 85.8958 73.2078L72.7823 67.8564C74.3366 63.3291 76.1288 58.887 78.1513 54.5486C82.1781 45.8681 90.5054 46.76 92.9603 54.6634Z" fill="black"/>
</svg>
