<svg width="79" height="231" viewBox="0 0 79 231" fill="none" xmlns="http://www.w3.org/2000/svg">
<path d="M19.1184 48.2146C18.2795 50.0514 17.3964 52.0736 16.6281 54.034C15.8599 55.9944 15.0739 58.0166 14.394 60.03C13.0056 63.9979 11.9482 68.0739 11.2326 72.2163L11.0383 73.5144C11.0198 73.7371 11.0407 73.9613 11.1001 74.1767C11.3085 74.9086 11.6368 75.6009 12.0715 76.2254C13.2056 77.8421 14.5211 79.3235 15.9923 80.6407C17.5435 82.0836 19.1707 83.4425 20.8668 84.7117C22.5623 86.0186 24.3461 87.2902 26.1034 88.4912L24.4521 91.5908C20.2559 89.7624 16.2731 87.4793 12.5749 84.7823C10.6019 83.3434 8.82124 81.6578 7.27647 79.7665C6.3608 78.6407 5.64677 77.365 5.16594 75.9958C4.88637 75.1405 4.74333 74.2465 4.74207 73.3466C4.74207 73.1347 4.74207 72.8256 4.74207 72.6755V72.2428L4.83038 71.3597C5.33663 66.759 6.30403 62.2208 7.718 57.8135C8.40679 55.6412 9.13973 53.4776 9.97865 51.3671C10.8176 49.2566 11.683 47.1902 12.7515 45.0444L19.1184 48.2146Z" fill="#E58A7B"/>
<path d="M24.8583 87.9437L31.1016 84.7823L29.4856 91.6349C29.4856 91.6349 25.2027 92.8358 23.2158 90.7518L24.8583 87.9437Z" fill="#E58A7B"/>
<path d="M36.815 85.9038L35.1548 91.5731L29.4855 91.6349L31.1015 84.7823L36.815 85.9038Z" fill="#E58A7B"/>
<path d="M45.628 15.1526C45.9619 16.3764 46.4268 17.5606 47.0144 18.6849C46.8427 18.8795 46.6216 19.0242 46.3744 19.1035C46.1273 19.1828 45.8632 19.1937 45.6104 19.1352L45.628 15.1526Z" fill="#DF5753"/>
<path d="M45.4426 15.2056C45.8084 15.2056 46.1049 14.7509 46.1049 14.19C46.1049 13.6292 45.8084 13.1745 45.4426 13.1745C45.0768 13.1745 44.7803 13.6292 44.7803 14.19C44.7803 14.7509 45.0768 15.2056 45.4426 15.2056Z" fill="#263238"/>
<path d="M45.2483 13.2098L46.5906 12.8301C46.5906 12.8301 45.9371 13.8721 45.2483 13.2098Z" fill="#263238"/>
<path d="M28.3817 21.6343C29.1853 25.7405 29.9889 33.2731 27.1101 36.0194C27.1101 36.0194 28.2404 40.1875 35.8789 40.1875C44.2769 40.1875 39.8881 36.0194 39.8881 36.0194C35.3049 34.9244 35.4197 31.5246 36.2233 28.3279L28.3817 21.6343Z" fill="#E58A7B"/>
<path d="M26.1476 12.2738C26.5715 19.1352 26.6068 22.0493 30.0684 25.5728C35.2873 30.8712 43.6235 28.8578 45.2571 22.0405C46.7318 15.859 45.7958 5.68613 39.0757 2.95746C37.6006 2.34978 35.9948 2.12846 34.4103 2.31442C32.8258 2.50039 31.315 3.0875 30.0207 4.02022C28.7264 4.95293 27.6914 6.20042 27.0137 7.64467C26.3359 9.08893 26.0378 10.6822 26.1476 12.2738Z" fill="#E58A7B"/>
<path d="M26.8275 4.55579C23.3836 5.80974 18.7916 4.87369 20.5931 15.497C22.5005 26.7472 19.5687 30.4473 19.5687 30.4473C19.5687 30.4473 32.6293 33.2289 45.9636 30.2795C45.9636 30.2795 41.8926 23.162 43.0318 17.9166C44.4888 11.2936 43.3409 8.84749 43.3409 8.84749C43.3409 8.84749 31.6667 2.78965 26.8275 4.55579Z" fill="#263238"/>
<path d="M41.3981 15.8502C41.4017 17.1548 41.7753 18.4317 42.4755 19.5326C43.4115 20.9632 44.5154 20.4157 44.7891 18.8968C45.0364 17.5634 44.8509 15.2056 43.6588 14.2872C42.4666 13.3688 41.4158 14.2695 41.3981 15.8502Z" fill="#E58A7B"/>
<path d="M23.834 5.71259C22.8449 2.93093 27.5605 -1.35194 37.5392 0.414193C47.5178 2.18032 47.9505 10.49 47.9505 10.49L45.9371 8.08804L46.0254 10.6136L35.773 12.5828L23.834 5.71259Z" fill="#263238"/>
<path d="M24.6817 36.4875C24.6228 36.0842 24.7237 35.674 24.9629 35.3441C25.202 35.0142 25.5606 34.7907 25.9621 34.7213C29.0705 34.2091 36.1351 33.1671 39.685 33.6616C42.3342 34.0325 43.023 35.5691 43.1378 36.8318C43.1557 37.053 43.1262 37.2754 43.0511 37.4841C42.9759 37.6928 42.857 37.8831 42.7022 38.042C42.5475 38.201 42.3605 38.3249 42.1538 38.4056C41.9472 38.4863 41.7256 38.5217 41.5041 38.5097L26.1564 37.8209C25.7946 37.8026 25.4502 37.6599 25.1815 37.4169C24.9127 37.174 24.7362 36.8456 24.6817 36.4875Z" fill="#4CAF4F"/>
<path opacity="0.6" d="M24.6817 36.4875C24.6228 36.0842 24.7237 35.674 24.9629 35.3441C25.202 35.0142 25.5606 34.7907 25.9621 34.7213C29.0705 34.2091 36.1351 33.1671 39.685 33.6616C42.3342 34.0325 43.023 35.5691 43.1378 36.8318C43.1557 37.053 43.1262 37.2754 43.0511 37.4841C42.9759 37.6928 42.857 37.8831 42.7022 38.042C42.5475 38.201 42.3605 38.3249 42.1538 38.4056C41.9472 38.4863 41.7256 38.5217 41.5041 38.5097L26.1564 37.8209C25.7946 37.8026 25.4502 37.6599 25.1815 37.4169C24.9127 37.174 24.7362 36.8456 24.6817 36.4875Z" fill="black"/>
<path d="M33.5565 190.759L39.2523 194.715L48.7806 181.796L43.0848 177.849L33.5565 190.759Z" fill="#E58A7B"/>
<path d="M20.2752 190.503L26.2889 193.929L34.7222 180.268L28.7085 176.842L20.2752 190.503Z" fill="#E58A7B"/>
<path d="M48.7717 181.796L43.8618 188.454L38.1661 184.507L43.0759 177.849L48.7717 181.796Z" fill="#CF6F64"/>
<path d="M28.6997 176.842L34.7222 180.277L30.3775 187.315L24.355 183.88L28.6997 176.842Z" fill="#CF6F64"/>
<path d="M38.3604 79.6163C38.3604 79.6163 60.596 107.636 56.4191 134.437C53.0546 156.081 33.5388 185.39 33.5388 185.39L24.3638 180.833C30.8309 167.875 36.3498 154.464 40.8771 140.707C42.2732 136.436 42.6807 131.903 42.0688 127.452C41.4569 123 39.8416 118.746 37.3449 115.01C26.0769 98.5581 8.02707 108.351 20.1692 79.6163H38.3604Z" fill="#4CAF4F"/>
<path opacity="0.6" d="M38.3604 79.6163C38.3604 79.6163 60.596 107.636 56.4191 134.437C53.0546 156.081 33.5388 185.39 33.5388 185.39L24.3638 180.833C30.8309 167.875 36.3498 154.464 40.8771 140.707C42.2732 136.436 42.6807 131.903 42.0688 127.452C41.4569 123 39.8416 118.746 37.3449 115.01C26.0769 98.5581 8.02707 108.351 20.1692 79.6163H38.3604Z" fill="black"/>
<path opacity="0.4" d="M49.2663 97.6132L46.0342 94.3989C46.0342 94.655 52.2952 133.307 54.0525 144.168C55.0895 140.995 55.8836 137.748 56.4279 134.455C58.4943 121.306 54.1761 107.874 49.2663 97.6132Z" fill="black"/>
<path d="M48.286 79.6163C48.286 79.6163 75.0606 114.833 75.82 135.947C76.447 153.608 46.6788 187.827 46.6788 187.827L38.0248 182.229C38.0248 182.229 55.4477 157.927 59.8365 138.075C58.141 118.401 22.2886 79.6163 22.2886 79.6163H48.286Z" fill="#4CAF4F"/>
<path opacity="0.6" d="M48.286 79.6163C48.286 79.6163 75.0606 114.833 75.82 135.947C76.447 153.608 46.6788 187.827 46.6788 187.827L38.0248 182.229C38.0248 182.229 55.4477 157.927 59.8365 138.075C58.141 118.401 22.2886 79.6163 22.2886 79.6163H48.286Z" fill="black"/>
<path d="M15.1622 37.5913C12.3011 38.2712 9.55475 48.6738 9.55475 48.6738L20.7432 56.1445C20.7432 56.1445 24.4697 47.9143 23.1628 44.3114C21.8117 40.5584 18.7563 36.7347 15.1622 37.5913Z" fill="#4CAF4F"/>
<path opacity="0.2" d="M17.3522 44.2937L16.5751 53.3628L20.7344 56.1533C21.8828 53.5678 22.7331 50.8599 23.2688 48.082L17.3522 44.2937Z" fill="black"/>
<path d="M51.5975 37.7944C51.5975 37.7944 54.9002 38.9512 48.286 79.6075H20.1516C20.6284 68.1277 20.6372 61.0632 15.1622 37.5913C19.1017 36.7794 23.0948 36.2541 27.1101 36.0194C31.364 35.7144 35.6342 35.7144 39.8881 36.0194C45.3807 36.5228 51.5975 37.7944 51.5975 37.7944Z" fill="#4CAF4F"/>
<path d="M54.4586 44.2937C55.0944 46.0598 55.7656 47.9584 56.472 49.7864C57.1785 51.6143 57.8496 53.4953 58.5649 55.3497L60.7284 60.8953L61.2759 62.2817L61.5585 62.9705L61.691 63.3149C61.691 63.3767 61.691 63.3768 61.691 63.3679C61.5296 63.1405 61.3181 62.9531 61.0728 62.8204C60.7235 62.6148 60.3296 62.4967 59.9248 62.476C59.5885 62.4655 59.2539 62.5288 58.9446 62.6615C58.5384 62.8469 58.5384 62.9264 58.5472 62.9176C58.6207 62.8587 58.686 62.7904 58.7415 62.7145C59.2303 62.0727 59.6534 61.3833 60.0043 60.6569C60.4193 59.8445 60.8167 58.9791 61.2141 58.1049C61.9912 56.3387 62.7065 54.5108 63.4218 52.6652C64.137 50.8196 64.817 48.9563 65.4793 47.0754L67.4927 41.4414L70.8925 42.3245C70.2214 46.3513 69.356 50.2721 68.3139 54.2635C67.8106 56.2504 67.2189 58.2197 66.5478 60.2066C66.2122 61.2044 65.8414 62.1934 65.4175 63.209C64.9757 64.3111 64.4317 65.3696 63.7927 66.3703C63.5578 66.7072 63.298 67.026 63.0155 67.3241C62.5646 67.8111 62.0173 68.199 61.4084 68.4632C60.868 68.6952 60.2828 68.8038 59.6952 68.7811C59.037 68.7566 58.3959 68.5652 57.832 68.2248C57.1667 67.8096 56.6145 67.2362 56.2248 66.5558C56.0923 66.3262 55.9775 66.0966 55.898 65.9288L55.7303 65.5932L55.3947 64.9045L54.7236 63.5357C53.8405 61.6989 52.9574 59.8445 52.1892 57.9812C51.4209 56.118 50.6085 54.2282 49.8491 52.3296C49.0896 50.431 48.4097 48.5324 47.765 46.4837L54.4586 44.2937Z" fill="#E58A7B"/>
<path d="M51.5975 37.7944C54.9797 38.598 58.7857 48.5943 58.7857 48.5943L48.7276 57.1512C48.7276 57.1512 42.2194 46.2541 43.5351 42.6601C44.9039 38.9159 47.1822 36.7435 51.5975 37.7944Z" fill="#4CAF4F"/>
<path d="M69.0911 38.2801L72.6234 35.3306L75.0783 39.1543L73.268 42.3422C73.268 42.3422 70.3892 44.9914 67.846 43.6403C67.4423 42.733 67.3455 41.7188 67.5702 40.7515C67.7949 39.7842 68.3288 38.9165 69.0911 38.2801Z" fill="#E58A7B"/>
<path d="M78.999 35.3395L78.7341 36.302L73.1443 37.238L72.5968 35.3306L78.999 35.3395Z" fill="#E58A7B"/>
<path d="M47.3676 188.278L37.283 181.761L39.0933 178.617L50.423 185.584L47.3676 188.278Z" fill="#4CAF4F"/>
<path d="M30.2362 193.47C29.3514 193.362 28.5012 193.06 27.7459 192.587C27.7148 192.576 27.6877 192.556 27.6686 192.529C27.6495 192.502 27.6392 192.47 27.6392 192.437C27.6392 192.404 27.6495 192.372 27.6686 192.345C27.6877 192.318 27.7148 192.298 27.7459 192.287C28.0197 192.198 30.3951 191.465 31.0839 192.031C31.1614 192.095 31.2202 192.179 31.2543 192.274C31.2885 192.368 31.2967 192.47 31.2782 192.569C31.2659 192.728 31.2132 192.882 31.1252 193.014C31.0371 193.147 30.9165 193.256 30.7748 193.329C30.6095 193.419 30.4246 193.468 30.2362 193.47ZM28.2493 192.499C29.3531 193.064 30.2362 193.267 30.66 193.055C30.7523 193.004 30.83 192.93 30.8857 192.84C30.9413 192.751 30.9731 192.648 30.9779 192.543C30.9779 192.402 30.978 192.34 30.8985 192.304C30.5276 192.004 29.203 192.234 28.2316 192.499H28.2493Z" fill="#263238"/>
<path d="M27.8077 192.9C27.7611 192.899 27.7167 192.878 27.6841 192.842C27.6709 192.815 27.6641 192.785 27.6641 192.755C27.6641 192.725 27.6709 192.695 27.6841 192.668C27.6841 192.582 28.2581 190.488 29.1588 190.016C29.2739 189.958 29.3988 189.929 29.5253 189.929C29.6517 189.929 29.7767 189.958 29.8917 190.016C30.0158 190.059 30.1231 190.145 30.1967 190.262C30.2703 190.38 30.306 190.52 30.298 190.662C30.2362 191.53 28.6201 192.726 27.8784 192.929L27.8077 192.9ZM29.5209 190.267C29.435 190.269 29.3507 190.292 29.2736 190.334C28.7261 190.623 28.2757 191.752 28.055 192.437C28.8321 192.08 29.9006 191.135 29.9359 190.604C29.9359 190.517 29.9359 190.411 29.7328 190.315C29.6667 190.276 29.595 190.25 29.5209 190.238V190.267Z" fill="#263238"/>
<path d="M42.8375 197.285C41.8396 197.285 40.4532 196.004 39.6938 195.219C39.6744 195.191 39.6639 195.159 39.6639 195.126C39.6639 195.093 39.6744 195.06 39.6938 195.033C39.7112 195.005 39.736 194.981 39.7655 194.966C39.7951 194.95 39.8282 194.943 39.8616 194.945C40.2148 194.945 43.279 195.404 43.7117 196.269C43.7576 196.347 43.7817 196.435 43.7817 196.525C43.7817 196.616 43.7576 196.704 43.7117 196.782C43.6468 196.916 43.5488 197.032 43.4268 197.119C43.3047 197.205 43.1628 197.259 43.0141 197.276L42.8375 197.285ZM40.2766 195.342C41.3893 196.419 42.3695 197.02 42.9258 196.949C43.0232 196.937 43.116 196.9 43.1961 196.843C43.2762 196.786 43.341 196.71 43.385 196.623C43.4048 196.592 43.4153 196.557 43.4153 196.521C43.4153 196.485 43.4048 196.45 43.385 196.419C43.1554 195.943 41.5217 195.536 40.2766 195.342Z" fill="#263238"/>
<path d="M40.3738 195.298C40.1756 195.304 39.9773 195.289 39.7821 195.254C39.7549 195.25 39.7291 195.239 39.7075 195.222C39.6858 195.205 39.6689 195.182 39.6585 195.157C39.6453 195.131 39.6384 195.102 39.6384 195.073C39.6384 195.044 39.6453 195.015 39.6585 194.989C39.7115 194.927 40.9036 193.488 42.0339 193.391C42.3539 193.366 42.6709 193.467 42.917 193.673C43.2614 193.973 43.2437 194.238 43.1554 194.406C42.9347 195.007 41.407 195.298 40.3738 195.298ZM40.1442 194.971C41.1332 195.024 42.7139 194.697 42.917 194.265C42.917 194.265 42.9876 194.123 42.758 193.929C42.6667 193.85 42.56 193.79 42.4445 193.753C42.3291 193.717 42.2073 193.705 42.0869 193.717C41.3255 193.93 40.6475 194.371 40.1442 194.98V194.971Z" fill="#263238"/>
<path d="M28.0462 191.695L20.5578 189.576C20.4287 189.537 20.2897 189.547 20.1675 189.604C20.0453 189.661 19.9484 189.761 19.8955 189.885L17.3699 195.563C17.3106 195.708 17.2828 195.865 17.2882 196.022C17.2936 196.179 17.3323 196.333 17.4015 196.474C17.4707 196.615 17.569 196.739 17.6899 196.84C17.8108 196.94 17.9515 197.013 18.1029 197.055C20.7521 197.744 22.0237 197.938 25.3175 198.883C27.3486 199.448 30.245 200.499 33.0443 201.294C35.8436 202.089 36.7797 199.36 35.6935 198.777C30.7837 196.181 30.3951 194.362 29.0529 192.419C28.8125 192.067 28.4562 191.811 28.0462 191.695Z" fill="#4CAF4F"/>
<path d="M39.8969 194.185L33.5035 189.77C33.3951 189.691 33.2615 189.655 33.128 189.668C32.9946 189.681 32.8705 189.742 32.7794 189.841L28.5407 194.397C28.4374 194.515 28.3603 194.653 28.3147 194.803C28.269 194.953 28.2558 195.111 28.2758 195.266C28.2958 195.422 28.3487 195.571 28.4309 195.704C28.5132 195.838 28.6228 195.952 28.7526 196.04C31.0044 197.55 32.1701 198.159 34.9871 200.111C36.7532 201.312 40.1707 203.979 42.5549 205.639C44.9392 207.299 46.7142 205.021 45.8664 204.12C42.0692 200.067 41.2392 197.523 40.6122 195.219C40.5034 194.8 40.2499 194.434 39.8969 194.185Z" fill="#4CAF4F"/>
<path d="M34.7133 185.973L23.1893 180.242L24.3815 177.116L36.6914 183.156L34.7133 185.973Z" fill="#4CAF4F"/>
<path d="M19.7277 77.9562L18.7563 80.4994C18.6592 80.6937 18.8888 80.8968 19.2155 80.8968H48.4273C48.6834 80.8968 48.8953 80.7732 48.913 80.6142L49.1603 78.0886C49.1603 77.9209 48.9572 77.7707 48.6834 77.7707H20.1869C20.1011 77.7627 20.0146 77.7753 19.9347 77.8076C19.8548 77.8398 19.7838 77.8908 19.7277 77.9562Z" fill="#4CAF4F"/>
<path opacity="0.4" d="M19.7277 77.9562L18.7563 80.4994C18.6592 80.6937 18.8888 80.8968 19.2155 80.8968H48.4273C48.6834 80.8968 48.8953 80.7732 48.913 80.6142L49.1603 78.0886C49.1603 77.9209 48.9572 77.7707 48.6834 77.7707H20.1869C20.1011 77.7627 20.0146 77.7753 19.9347 77.8076C19.8548 77.8398 19.7838 77.8908 19.7277 77.9562Z" fill="white"/>
<path d="M24.3285 80.5235H23.5602C23.4101 80.5235 23.2953 80.4576 23.3041 80.3772L23.6662 77.6625C23.6662 77.5894 23.8075 77.5235 23.9576 77.5235H24.7259C24.876 77.5235 24.9908 77.5894 24.982 77.6625L24.6199 80.3772C24.6111 80.4576 24.4786 80.5235 24.3285 80.5235Z" fill="#4CAF4F"/>
<path d="M42.343 81.1441H41.5836C41.4335 81.1441 41.3187 81.0646 41.3275 80.9674L41.6807 77.6913C41.6807 77.603 41.8309 77.5235 41.981 77.5235H42.7404C42.8905 77.5235 43.0142 77.603 42.9965 77.6913L42.6433 80.9674C42.5991 81.0646 42.502 81.1441 42.343 81.1441Z" fill="#4CAF4F"/>
<path d="M23.6573 230.691C36.7229 230.691 47.3147 229.924 47.3147 228.978C47.3147 228.032 36.7229 227.265 23.6573 227.265C10.5917 227.265 0 228.032 0 228.978C0 229.924 10.5917 230.691 23.6573 230.691Z" fill="#F5F5F5"/>
<path d="M38.069 226.558C33.8832 225.34 29.2383 223.777 26.4302 222.143C26.3507 222.09 26.2624 222.064 26.1829 222.02V203.069H34.6515C35.2943 203.031 35.8984 202.749 36.3401 202.28C36.7818 201.811 37.0278 201.192 37.0278 200.548C37.0278 199.904 36.7818 199.284 36.3401 198.816C35.8984 198.347 35.2943 198.065 34.6515 198.027H26.2271V111.645H21.1406V198.027H12.725C12.3813 198.006 12.0372 198.056 11.7136 198.174C11.3901 198.291 11.0939 198.474 10.8434 198.71C10.5929 198.946 10.3933 199.231 10.2569 199.547C10.1205 199.863 10.0501 200.204 10.0501 200.548C10.0501 200.892 10.1205 201.233 10.2569 201.549C10.3933 201.865 10.5929 202.15 10.8434 202.386C11.0939 202.622 11.3901 202.804 11.7136 202.922C12.0372 203.039 12.3813 203.089 12.725 203.069H21.1406V221.993C21.0611 221.993 20.9816 222.064 20.9022 222.117C18.0498 223.777 13.4402 225.34 9.25452 226.532C8.97177 226.617 8.72897 226.801 8.57009 227.05C8.41121 227.299 8.34675 227.597 8.38838 227.89C8.43 228.182 8.57496 228.45 8.79702 228.645C9.01907 228.84 9.30354 228.948 9.59891 228.952H37.7246C38.0068 228.932 38.2739 228.817 38.4814 228.624C38.6888 228.432 38.8239 228.174 38.8642 227.894C38.9045 227.614 38.8475 227.329 38.7028 227.086C38.5581 226.843 38.3343 226.657 38.069 226.558Z" fill="#E0E0E0"/>
<path d="M39.3671 102.85H7.96527C5.43897 102.85 3.39099 104.898 3.39099 107.424V116.758C3.39099 119.284 5.43897 121.332 7.96527 121.332H39.3671C41.8934 121.332 43.9414 119.284 43.9414 116.758V107.424C43.9414 104.898 41.8934 102.85 39.3671 102.85Z" fill="#4CAF4F"/>
<path d="M7.67383 121.341V122.948C7.67383 124.273 9.11323 125.35 10.8794 125.35H36.4883C38.2544 125.35 39.6938 124.273 39.6938 122.948V121.341H7.67383Z" fill="#4CAF4F"/>
<path opacity="0.3" d="M7.67383 121.341V122.948C7.67383 124.273 9.11323 125.35 10.8794 125.35H36.4883C38.2544 125.35 39.6938 124.273 39.6938 122.948V121.341H7.67383Z" fill="white"/>
</svg>
