<svg width="123" height="228" viewBox="0 0 123 228" fill="none" xmlns="http://www.w3.org/2000/svg">
<path d="M48.8335 0H43.1907V0.909557H48.8335V0Z" fill="#4CAF4F"/>
<path d="M121.879 35.9995L121.196 51.1552L122.105 51.1962L122.788 36.0405L121.879 35.9995Z" fill="#4CAF4F"/>
<path d="M120.123 4.07977H15.9216L6.22559 221.067H110.427L120.123 4.07977Z" fill="#4CAF4F"/>
<path opacity="0.56" d="M117.015 7.06451H12.8133L3.11725 224.051H107.319L117.015 7.06451Z" fill="#FAFAFA"/>
<path opacity="0.07" d="M113.907 10.0405H9.7049L0 227.027H104.202L113.907 10.0405Z" fill="#4CAF4F"/>
<path d="M102.047 104.679H13.1047L12.3629 121.28H101.305L102.047 104.679Z" fill="white"/>
<path d="M62.0177 92.5629H13.6434L13.3167 99.9895H61.691L62.0177 92.5629Z" fill="#4CAF4F"/>
<path d="M100.042 149.485H11.1001L10.3583 166.087H99.3007L100.042 149.485Z" fill="white"/>
<path opacity="0.47" d="M83.7323 188.508H23.9222L23.0303 208.404H82.8404L83.7323 188.508Z" fill="#4CAF4F"/>
<path d="M79.732 211.494H19.922C19.8959 211.501 19.8686 211.501 19.8425 211.494C19.8338 211.468 19.8338 211.441 19.8425 211.415L20.7256 191.51C20.7255 191.497 20.7283 191.484 20.7337 191.471C20.7391 191.459 20.7471 191.448 20.7571 191.438C20.767 191.429 20.7788 191.422 20.7916 191.418C20.8045 191.414 20.818 191.412 20.8315 191.413H80.6416C80.6525 191.408 80.6646 191.405 80.6769 191.405C80.6892 191.405 80.7013 191.408 80.7122 191.413C80.7184 191.424 80.7217 191.436 80.7217 191.449C80.7217 191.461 80.7184 191.473 80.7122 191.484L79.8468 211.432C79.8362 211.453 79.8195 211.47 79.799 211.481C79.7785 211.492 79.7552 211.497 79.732 211.494ZM20.0279 211.282H79.626L80.5091 191.59H20.911L20.0279 211.282Z" fill="white"/>
<path d="M51.571 137.37H11.6388L11.3121 144.805H51.2355L51.571 137.37Z" fill="#4CAF4F"/>
<path d="M82.5931 51.05C82.3648 55.8816 80.6467 60.5241 77.6745 64.3401C75.4742 67.2226 72.6429 69.5626 69.3976 71.1806C66.1524 72.7987 62.5796 73.6517 58.9535 73.6741C56.0232 73.6965 53.1193 73.1187 50.4208 71.9763C47.7223 70.8339 45.2862 69.1511 43.2626 67.0315C41.2391 64.912 39.6709 62.4007 38.6547 59.6521C37.6384 56.9036 37.1957 53.9761 37.3537 51.05C37.6642 44.9781 40.2827 39.2541 44.6736 35.0487C49.0644 30.8433 54.896 28.4742 60.9757 28.4259C63.9082 28.3985 66.8152 28.9728 69.517 30.1132C72.2188 31.2537 74.658 32.936 76.684 35.0563C78.71 37.1767 80.2796 39.6899 81.296 42.4408C82.3124 45.1917 82.7538 48.1218 82.5931 51.05Z" fill="white"/>
<path d="M84.7213 33.1591C84.6637 34.4438 84.2069 35.6786 83.4144 36.6914C82.828 37.457 82.0745 38.0785 81.2113 38.5086C80.3482 38.9386 79.3982 39.1658 78.4339 39.1728C77.4996 39.1785 76.5781 38.9553 75.75 38.5228C74.9218 38.0902 74.2121 37.4614 73.683 36.6914C72.9823 35.6509 72.6355 34.4122 72.694 33.1591C72.7793 31.547 73.4765 30.0282 74.6432 28.9124C75.8099 27.7965 77.3583 27.1678 78.9726 27.1543C79.7514 27.1472 80.5234 27.2996 81.241 27.6022C81.9587 27.9048 82.6067 28.3511 83.1453 28.9137C83.6839 29.4763 84.1016 30.1432 84.3726 30.8733C84.6437 31.6035 84.7623 32.3814 84.7213 33.1591Z" fill="#4CAF4F"/>
<path d="M22.6859 112.979C22.6435 113.691 22.3329 114.36 21.8167 114.852C21.3005 115.343 20.6171 115.621 19.9043 115.629C19.5601 115.633 19.2187 115.566 18.9013 115.433C18.5839 115.3 18.2971 115.103 18.0587 114.855C17.8204 114.607 17.6355 114.312 17.5155 113.99C17.3955 113.667 17.3429 113.323 17.361 112.979C17.3993 112.266 17.7087 111.595 18.2258 111.102C18.7429 110.61 19.4286 110.334 20.1427 110.33C20.4865 110.327 20.8273 110.395 21.1441 110.528C21.4609 110.662 21.7472 110.859 21.9853 111.107C22.2234 111.355 22.4084 111.649 22.5288 111.971C22.6493 112.293 22.7028 112.636 22.6859 112.979Z" fill="#263238"/>
<path d="M34.5897 112.979C34.5493 113.692 34.2394 114.362 33.7227 114.854C33.2061 115.346 32.5215 115.623 31.808 115.629C31.4646 115.631 31.1242 115.564 30.8078 115.43C30.4914 115.297 30.2057 115.1 29.9683 114.852C29.7309 114.604 29.5468 114.309 29.4273 113.987C29.3079 113.665 29.2555 113.322 29.2736 112.979C29.3118 112.268 29.6199 111.598 30.1352 111.105C30.6504 110.613 31.3339 110.336 32.0465 110.33C32.3906 110.326 32.732 110.393 33.0494 110.526C33.3669 110.659 33.6536 110.856 33.892 111.104C34.1304 111.352 34.3153 111.647 34.4353 111.969C34.5553 112.292 34.6078 112.636 34.5897 112.979Z" fill="#263238"/>
<path d="M46.5022 112.979C46.4619 113.692 46.1519 114.362 45.6352 114.854C45.1186 115.346 44.434 115.623 43.7206 115.629C43.3768 115.631 43.036 115.564 42.7192 115.43C42.4023 115.297 42.1161 115.1 41.878 114.852C41.6399 114.604 41.4549 114.31 41.3344 113.988C41.214 113.666 41.1605 113.323 41.1773 112.979C41.2177 112.267 41.5277 111.597 42.0443 111.105C42.561 110.613 43.2456 110.336 43.959 110.33C44.3032 110.326 44.6445 110.393 44.962 110.526C45.2794 110.659 45.5662 110.856 45.8045 111.104C46.0429 111.352 46.2278 111.647 46.3478 111.969C46.4678 112.292 46.5204 112.636 46.5022 112.979Z" fill="#263238"/>
<path d="M20.6814 157.786C20.639 158.498 20.3283 159.167 19.8121 159.658C19.2959 160.15 18.6125 160.428 17.8997 160.435C17.5559 160.438 17.2151 160.371 16.8983 160.237C16.5815 160.104 16.2952 159.907 16.0571 159.659C15.819 159.411 15.634 159.117 15.5136 158.795C15.3931 158.473 15.3396 158.13 15.3565 157.786C15.3968 157.074 15.7068 156.404 16.2235 155.912C16.7401 155.42 17.4247 155.143 18.1381 155.137C18.4819 155.134 18.8227 155.202 19.1396 155.335C19.4564 155.469 19.7426 155.665 19.9808 155.913C20.2189 156.161 20.4038 156.455 20.5243 156.778C20.6448 157.1 20.6982 157.443 20.6814 157.786Z" fill="#263238"/>
<path d="M32.5851 157.786C32.5449 158.497 32.2361 159.166 31.7213 159.658C31.2066 160.15 30.5242 160.428 29.8123 160.435C29.4681 160.439 29.1268 160.373 28.8093 160.24C28.4919 160.107 28.2051 159.91 27.9668 159.662C27.7284 159.413 27.5435 159.119 27.4235 158.796C27.3035 158.474 27.2509 158.13 27.2691 157.786C27.3094 157.074 27.6194 156.404 28.1361 155.912C28.6527 155.42 29.3373 155.143 30.0507 155.137C30.3941 155.134 30.7345 155.202 31.0509 155.335C31.3673 155.469 31.653 155.666 31.8904 155.914C32.1278 156.162 32.312 156.456 32.4314 156.778C32.5509 157.1 32.6032 157.443 32.5851 157.786Z" fill="#263238"/>
<path d="M44.5241 157.786C44.4838 158.499 44.1738 159.169 43.6572 159.661C43.1405 160.153 42.4559 160.43 41.7425 160.435C41.399 160.437 41.0589 160.369 40.7426 160.235C40.4263 160.101 40.1406 159.904 39.9028 159.656C39.6649 159.408 39.4799 159.115 39.359 158.793C39.238 158.472 39.1837 158.129 39.1993 157.786C39.2417 157.075 39.5523 156.406 40.0685 155.914C40.5847 155.422 41.2681 155.145 41.9809 155.137C42.3251 155.133 42.6664 155.199 42.9839 155.333C43.3013 155.466 43.5881 155.662 43.8264 155.911C44.0648 156.159 44.2497 156.454 44.3697 156.776C44.4897 157.099 44.5423 157.442 44.5241 157.786Z" fill="#263238"/>
<path d="M56.4103 157.786C56.3678 158.498 56.0572 159.167 55.541 159.658C55.0248 160.15 54.3414 160.428 53.6286 160.435C53.2852 160.437 52.945 160.369 52.6287 160.235C52.3125 160.101 52.0267 159.904 51.7889 159.656C51.551 159.408 51.366 159.115 51.2451 158.793C51.1242 158.472 51.0698 158.129 51.0854 157.786C51.1278 157.075 51.4384 156.406 51.9546 155.914C52.4708 155.422 53.1542 155.145 53.867 155.137C54.2108 155.134 54.5516 155.202 54.8684 155.335C55.1853 155.469 55.4715 155.665 55.7096 155.913C55.9477 156.161 56.1327 156.455 56.2532 156.778C56.3737 157.1 56.4271 157.443 56.4103 157.786Z" fill="#263238"/>
<path d="M68.367 157.786C68.3245 158.498 68.0139 159.167 67.4977 159.658C66.9815 160.15 66.2981 160.428 65.5853 160.435C65.2411 160.439 64.8998 160.373 64.5823 160.24C64.2649 160.107 63.9781 159.91 63.7398 159.662C63.5014 159.413 63.3165 159.119 63.1965 158.796C63.0765 158.474 63.0239 158.13 63.0421 157.786C63.0824 157.074 63.3924 156.404 63.9091 155.912C64.4257 155.42 65.1103 155.143 65.8237 155.137C66.1675 155.134 66.5083 155.202 66.8251 155.335C67.142 155.469 67.4282 155.665 67.6663 155.913C67.9044 156.161 68.0894 156.455 68.2099 156.778C68.3303 157.1 68.3838 157.443 68.367 157.786Z" fill="#263238"/>
<path d="M66.5597 49.8717C70.2558 46.2573 70.4519 40.4638 66.9977 36.9315C63.5435 33.3993 57.7471 33.466 54.051 37.0804C50.3549 40.6949 50.1587 46.4884 53.6129 50.0206C57.0671 53.5528 62.8635 53.4862 66.5597 49.8717Z" fill="#4CAF4F"/>
<path d="M77.6744 64.3402C75.4742 67.2226 72.6428 69.5627 69.3976 71.1807C66.1524 72.7987 62.5796 73.6517 58.9534 73.6742C55.4371 73.704 51.9675 72.8682 48.8506 71.2404C45.7336 69.6126 43.065 67.2429 41.0802 64.3402C45.3719 60.0661 52.1627 57.2756 59.6864 57.2756C67.2101 57.2756 73.7625 60.0661 77.6744 64.3402Z" fill="#4CAF4F"/>
<path opacity="0.1" d="M66.5597 49.8717C70.2558 46.2573 70.4519 40.4638 66.9977 36.9315C63.5435 33.3993 57.7471 33.466 54.051 37.0804C50.3549 40.6949 50.1587 46.4884 53.6129 50.0206C57.0671 53.5528 62.8635 53.4862 66.5597 49.8717Z" fill="white"/>
<path opacity="0.1" d="M77.6744 64.3402C75.4742 67.2226 72.6428 69.5627 69.3976 71.1807C66.1524 72.7987 62.5796 73.6517 58.9534 73.6742C55.4371 73.704 51.9675 72.8682 48.8506 71.2404C45.7336 69.6126 43.065 67.2429 41.0802 64.3402C45.3719 60.0661 52.1627 57.2756 59.6864 57.2756C67.2101 57.2756 73.7625 60.0661 77.6744 64.3402Z" fill="white"/>
</svg>
